<svg width="25" height="24" viewBox="0 0 25 24" fill="none" xmlns="http://www.w3.org/2000/svg">
<g id="shop">
<g id="vuesax/bulk/shop">
<g id="shop_2">
<path id="Vector" opacity="0.4" d="M21.87 11.3894V17.3794C21.87 20.1394 19.63 22.3794 16.87 22.3794H8.13C5.37 22.3794 3.13 20.1394 3.13 17.3794V11.4594C3.89 12.2794 4.97 12.7494 6.14 12.7494C7.4 12.7494 8.61 12.1194 9.37 11.1094C10.05 12.1194 11.21 12.7494 12.5 12.7494C13.78 12.7494 14.92 12.1494 15.61 11.1494C16.38 12.1394 17.57 12.7494 18.81 12.7494C20.02 12.7494 21.12 12.2594 21.87 11.3894Z" fill="#003CFF"/>
<path id="Vector_2" d="M15.49 1.25H9.48997L8.74997 8.61C8.68997 9.29 8.78997 9.93 9.03997 10.51C9.61997 11.87 10.98 12.75 12.5 12.75C14.04 12.75 15.37 11.89 15.97 10.52C16.15 10.09 16.26 9.59 16.27 9.08V8.89L15.49 1.25Z" fill="#003CFF"/>
<path id="Vector_3" opacity="0.6" d="M22.86 8.27L22.57 5.5C22.15 2.48 20.78 1.25 17.85 1.25H14.01L14.75 8.75C14.76 8.85 14.77 8.96 14.77 9.15C14.83 9.67 14.99 10.15 15.23 10.58C15.95 11.9 17.35 12.75 18.81 12.75C20.14 12.75 21.34 12.16 22.09 11.12C22.69 10.32 22.96 9.31 22.86 8.27Z" fill="#003CFF"/>
<path id="Vector_4" opacity="0.6" d="M7.09002 1.25C4.15002 1.25 2.79002 2.48 2.36002 5.53L2.09002 8.28C1.99002 9.35 2.28002 10.39 2.91002 11.2C3.67002 12.19 4.84002 12.75 6.14002 12.75C7.60002 12.75 9.00002 11.9 9.71002 10.6C9.97002 10.15 10.14 9.63 10.19 9.09L10.97 1.26H7.09002V1.25Z" fill="#003CFF"/>
<path id="Vector_5" d="M11.85 16.6602C10.58 16.7902 9.62 17.8702 9.62 19.1502V22.3802H15.37V19.5002C15.38 17.4102 14.15 16.4202 11.85 16.6602Z" fill="#003CFF"/>
</g>
</g>
</g>
</svg>
