<svg width="25" height="24" viewBox="0 0 25 24" fill="none" xmlns="http://www.w3.org/2000/svg">
<g id="more-2">
<g id="vuesax/linear/more-2">
<g id="more-2_2">
<path id="Vector" d="M12.5 9.32C13.69 9.32 14.66 8.35 14.66 7.16C14.66 5.97 13.69 5 12.5 5C11.31 5 10.34 5.97 10.34 7.16C10.34 8.35 11.31 9.32 12.5 9.32Z" stroke="#615E69" stroke-width="1.5" stroke-linecap="round" stroke-linejoin="round"/>
<path id="Vector_2" d="M7.29 18.9997C8.48 18.9997 9.45 18.0297 9.45 16.8397C9.45 15.6497 8.48 14.6797 7.29 14.6797C6.1 14.6797 5.13 15.6497 5.13 16.8397C5.13 18.0297 6.09 18.9997 7.29 18.9997Z" stroke="#615E69" stroke-width="1.5" stroke-linecap="round" stroke-linejoin="round"/>
<path id="Vector_3" d="M17.71 18.9997C18.9 18.9997 19.87 18.0297 19.87 16.8397C19.87 15.6497 18.9 14.6797 17.71 14.6797C16.52 14.6797 15.55 15.6497 15.55 16.8397C15.55 18.0297 16.52 18.9997 17.71 18.9997Z" stroke="#615E69" stroke-width="1.5" stroke-linecap="round" stroke-linejoin="round"/>
</g>
</g>
</g>
</svg>
