<svg width="25" height="24" viewBox="0 0 25 24" fill="none" xmlns="http://www.w3.org/2000/svg">
<g id="box">
<g id="vuesax/linear/box">
<g id="box_2">
<g id="Group">
<g id="Group_2">
<path id="Vector" d="M3.67004 7.43945L12.5 12.5494L21.27 7.46942" stroke="#615E69" stroke-width="1.5" stroke-linecap="round" stroke-linejoin="round"/>
<path id="Vector_2" d="M12.5 21.6091V12.5391" stroke="#615E69" stroke-width="1.5" stroke-linecap="round" stroke-linejoin="round"/>
</g>
<path id="Vector_3" d="M10.43 2.48L5.09 5.45003C3.88 6.12003 2.89001 7.80001 2.89001 9.18001V14.83C2.89001 16.21 3.88 17.89 5.09 18.56L10.43 21.53C11.57 22.16 13.44 22.16 14.58 21.53L19.92 18.56C21.13 17.89 22.12 16.21 22.12 14.83V9.18001C22.12 7.80001 21.13 6.12003 19.92 5.45003L14.58 2.48C13.43 1.84 11.57 1.84 10.43 2.48Z" stroke="#615E69" stroke-width="1.5" stroke-linecap="round" stroke-linejoin="round"/>
</g>
<path id="Vector_4" d="M17.5 13.2396V9.57965L8.01001 4.09961" stroke="#615E69" stroke-width="1.5" stroke-linecap="round" stroke-linejoin="round"/>
</g>
</g>
</g>
</svg>
