<svg width="25" height="24" viewBox="0 0 25 24" fill="none" xmlns="http://www.w3.org/2000/svg">
<g id="tag-2">
<g id="vuesax/linear/tag-2">
<g id="tag-2_2">
<path id="Vector" d="M4.90476 15.5264L9.43476 20.0564C11.2948 21.9164 14.3148 21.9164 16.1848 20.0564L20.5748 15.6664C22.4348 13.8064 22.4348 10.7864 20.5748 8.91637L16.0348 4.39637C15.0848 3.44637 13.7748 2.93637 12.4348 3.00637L7.43476 3.24637C5.43476 3.33637 3.84476 4.92637 3.74476 6.91637L3.50476 11.9164C3.44476 13.2664 3.95476 14.5764 4.90476 15.5264Z" stroke="#615E69" stroke-width="1.5" stroke-linecap="round" stroke-linejoin="round"/>
<path id="Vector_2" d="M10.2347 12.2266C11.6155 12.2266 12.7347 11.1073 12.7347 9.72656C12.7347 8.34585 11.6155 7.22656 10.2347 7.22656C8.85403 7.22656 7.73474 8.34585 7.73474 9.72656C7.73474 11.1073 8.85403 12.2266 10.2347 12.2266Z" stroke="#615E69" stroke-width="1.5" stroke-linecap="round"/>
<path id="Vector_3" d="M13.7347 17.2266L17.7347 13.2266" stroke="#615E69" stroke-width="1.5" stroke-miterlimit="10" stroke-linecap="round" stroke-linejoin="round"/>
</g>
</g>
</g>
</svg>
